# File generated by ImageToStl.com - Free Image and 3D model conversion tools

o obj1
v -181.09172058 654.98431396 130.44256592
v -182.43566895 656.0927124 72.43075562
v -134.40216064 295.44161987 -34.13344574
v -137.34657288 339.4803772 -66.24616241
v -49.26907349 841.059021 29.5745697
v -59.72018051 828.23828125 108.38246918
v -127.11083984 664.85791016 64.89893341
v -29.01853371 787.17156982 24.40336609
v -105.76194763 349.8866272 -79.67422485
v -123.57091522 486.8973999 82.2226944
v -97.28704834 316.11044312 7.35079432
v -78.956604 514.31152344 341.14562988
v -155.62585449 644.72180176 209.8624115
v -78.42464447 399.70092773 252.89648438
v 13.78513145 603.66906738 309.20709229
v -121.68565369 45.85080719 81.62446594
v -155.25260925 -1.001E-05 90.5954361
v -125.31060028 -1.001E-05 94.12530518
v -106.16985321 41.52008438 -41.31846619
v -120.36232758 -1.001E-05 -57.06009674
v -27.58958054 -1.001E-05 12.3227787
v 35.23389053 -1.001E-05 -106.02418518
v 82.24885559 -1.005E-05 75.42397308
v -144.29319763 210.21218872 78.53353119
v -126.21840668 186.4934845 -44.27871323
v -26.60188293 56.2809639 152.59980774
v -29.66909981 177.97198486 159.86491394
v 12.47992897 219.11058044 145.25408936
v -110.12249756 242.65478516 -35.24422073
v 64.72073364 204.19972229 -233.03634644
v 80.09331512 241.84434509 -213.88970947
v -18.61535454 160.30189514 -81.32849121
v -23.38989639 683.41668701 -198.48397827
v -17.62869835 487.68844604 -266.50009155
v -108.37799835 -1.001E-05 159.93721008
v 19.9184761 32.04525375 -86.22683716
v -43.14264297 -1.001E-05 153.64334106
v -35.63021469 326.13442993 211.06838989
v -26.99542999 864.58520508 408.02389526
v -91.90205383 921.10821533 175.57081604
v 12.77047348 728.59228516 264.20657349
v 36.18477631 610.56817627 243.83564758
v -35.36400223 1094.26550293 366.89465332
v 21.14056587 1183.81921387 241.42460632
v 23.72654533 1137.95935059 78.680336
v 24.22280312 972.57269287 4.4834857
v -4.67472267 436.61688232 369.1836853
v 82.78587341 504.5491333 344.93228149
v 89.08609009 446.24914551 347.77224731
v 118.77414703 489.95632935 346.35638428
v 106.02069855 354.63928223 282.78881836
v 194.84997559 282.23339844 258.03335571
v 194.84997559 374.24255371 328.95401001
v 76.86852264 393.33859253 330.51037598
v 61.44151306 560.68060303 276.40368652
v 194.84997559 983.69958496 -59.8365593
v 194.84997559 895.11914062 -10.54912186
v 194.84997559 901.66009521 -49.78845978
v 194.84997559 866.83410645 -49.04870224
v -22.4770031 -1.005E-05 174.16656494
v 113.50455475 193.35794067 160.79893494
v 194.84997559 190.48707581 187.11882019
v 105.57772064 138.81918335 115.8780899
v 194.84997559 26.59285355 60.44782257
v 4.60068655 1050.71472168 388.62234497
v 26.24330521 896.50274658 422.05307007
v 194.84997559 1146.08410645 442.2819519
v 87.55745697 1035.87402344 421.19216919
v 194.84997559 1254.88574219 235.21243286
v 59.21646118 54.07061386 73.759552
v 194.84997559 774.01721191 -242.96879578
v 194.84997559 676.55999756 349.52505493
v 194.84997559 794.62927246 500.34463501
v 95.65119934 894.01654053 447.65649414
v 194.84997559 457.78097534 -346.45480347
v 142.50088501 157.70497131 -225.45932007
v 109.9253006 110.4602356 -52.65042114
v 194.84997559 223.38002014 -255.90484619
v 46.67572021 911.86566162 368.10101318
v 60.7422905 1020.08496094 400.41693115
v 107.93130493 515.55889893 295.78875732
v 144.69827271 506.53546143 312.96368408
v 194.84997559 1186.84423828 30.1600666
v 80.31626129 911.39916992 356.28961182
v 194.84997559 356.55749512 -363.49954224
v 45.49051285 363.37185669 -519.84356689
v 194.84997559 206.86888123 -329.02389526
v 81.37142944 192.77818298 -437.48059082
v 194.84997559 436.18515015 -564.16278076
v 87.16812897 225.20179749 -655.7958374
v 194.84997559 237.23698425 -718.3104248
v 120.54982758 213.9344635 -580.86022949
v 92.50382233 259.3616333 -522.17297363
v 106.2975235 -1.001E-05 -462.94641113
v 61.60172653 81.43195343 -258.800354
v 138.0957489 -1.001E-05 -195.73797607
v 194.84997559 210.74562073 -262.59939575
v 194.84997559 166.72764587 -233.10964966
v 324.97924805 204.19972229 -233.03634644
v 247.19906616 157.70497131 -225.45932007
v 172.57725525 -1.001E-05 -566.90014648
v 104.84001923 402.36758423 286.46386719
v 138.90402222 416.74859619 303.94888306
v 120.60258484 457.5133667 297.9085083
v 194.84997559 -1.001E-05 7.23930979
v 194.84997559 -1.001E-05 -430.13208008
v 194.84997559 -1.001E-05 -566.90014648
v 217.12271118 -1.001E-05 -566.90014648
v 416.69537354 864.58520508 408.02389526
v 376.92950439 728.59228516 264.20657349
v 294.04876709 894.01654053 447.65649414
v 363.45663452 896.50274658 422.05307007
v 425.06396484 1094.26550293 366.89465332
v 302.14248657 1035.87402344 421.19216919
v 368.55941772 1183.81921387 241.42460632
v 250.79595947 416.74859619 303.94888306
v 283.67926025 354.63928223 282.78881836
v 284.85992432 402.36758423 286.46386719
v 328.25845337 560.68060303 276.40368652
v 281.76861572 515.55889893 295.78875732
v 425.3302002 326.13442993 211.06838989
v 468.12463379 399.70092773 252.89648438
v 276.19540405 193.35794067 160.79893494
v 284.1222229 138.81918335 115.8780899
v 377.22003174 219.11058044 145.25408936
v 365.97338867 1137.95935059 78.680336
v 279.7746582 110.4602356 -52.65042114
v 251.60423279 -1.001E-05 -195.73797607
v 328.09823608 81.43195343 -258.800354
v 283.40240479 -1.001E-05 -462.94641113
v 365.47717285 972.57269287 4.4834857
v 449.42016602 828.23828125 108.38246918
v 438.96905518 841.059021 29.5745697
v 418.71847534 787.17156982 24.40336609
v 516.81079102 664.85791016 64.89893341
v 572.13568115 656.0927124 72.43075562
v 413.08984375 683.41668701 -198.48397827
v 308.32855225 192.77818298 -437.48059082
v 407.32867432 487.68844604 -266.50009155
v 309.60665894 241.84434509 -213.88970947
v 527.04656982 339.4803772 -66.24616241
v 344.20947266 363.37185669 -519.84356689
v 302.53182983 225.20179749 -655.7958374
v 269.15014648 213.9344635 -580.86022949
v 269.09738159 457.5133667 297.9085083
v 245.00166321 506.53546143 312.96368408
v 270.92581177 489.95632935 346.35638428
v 300.6138916 446.24914551 347.77224731
v 306.9140625 504.5491333 344.93228149
v 408.31533813 160.30189514 -81.32849121
v 297.19610596 259.3616333 -522.17297363
v 394.37472534 436.61688232 369.1836853
v 468.65655518 514.31152344 341.14562988
v 369.78149414 32.04525375 -86.22683716
v 312.8314209 393.33859253 330.51037598
v 330.48348999 54.07061386 73.759552
v 419.36907959 177.97198486 159.86491394
v 343.02423096 911.86566162 368.10101318
v 309.38372803 911.39916992 356.28961182
v 328.95767212 1020.08496094 400.41693115
v 385.09933472 1050.71472168 388.62234497
v 375.91485596 603.66906738 309.20709229
v 353.51513672 610.56817627 243.83564758
v 354.46606445 -1.001E-05 -106.02418518
v 307.45111084 -1.005E-05 75.42397308
v 417.28955078 -1.001E-05 12.3227787
v 510.06228638 -1.001E-05 -57.06009674
v 544.95251465 -1.001E-05 90.5954361
v 412.17697144 -1.005E-05 174.16656494
v 432.84262085 -1.001E-05 153.64334106
v 498.07800293 -1.001E-05 159.93721008
v 515.01062012 -1.001E-05 94.12530518
v 416.30187988 56.2809639 152.59980774
v 495.46191406 349.8866272 -79.67422485
v 524.10211182 295.44161987 -34.13344574
v 499.82250977 242.65478516 -35.24422073
v 481.60202026 921.10821533 175.57081604
v 495.86981201 41.52008438 -41.31846619
v 515.91845703 186.4934845 -44.27871323
v 545.32580566 644.72180176 209.8624115
v 486.98703003 316.11044312 7.35079432
v 533.99316406 210.21218872 78.53353119
v 511.38562012 45.85080719 81.62446594
v 570.79168701 654.98431396 130.44256592
v 513.27087402 486.8973999 82.2226944
vn -0.99024 -0.13789 0.02031
vn -0.99151 -0.11309 -0.06418
vn -0.80788 0.58858 0.02996
vn -0.81986 0.57236 -0.01561
vn -0.1103 -0.1483 -0.98277
vn -0.34063 -0.03785 -0.93944
vn -0.18551 0.3995 -0.89776
vn -0.45552 0.30194 -0.83746
vn -0.57422 -0.40123 0.71365
vn -0.57422 -0.40123 0.71365
vn 0.36558 -0.13892 0.92035
vn -0.92291 -0.23758 0.30298
vn -0.95345 -0.28137 0.10846
vn -0.96598 -0.21298 0.14671
vn -0.30143 0.58262 0.75478
vn -0.30415 0.57778 0.75741
vn -0.86517 0.19717 -0.46108
vn -0.11274 0.26965 0.95634
vn -0.81208 0.57053 -0.12258
vn -0.89732 0.38711 -0.21203
vn 0 -1 0
vn -0 -1 -0
vn -0.98343 -0.13749 -0.11818
vn -0.59218 -0.06635 0.80307
vn -0.58924 -0.06294 0.8055
vn -0.32849 0.623 0.70991
vn -0.35085 0.61138 0.70931
vn -0.9383 0.28092 -0.2017
vn -0.93404 0.2991 -0.19523
vn -0.30237 0.52733 -0.79403
vn -0.45173 0.27659 -0.84819
vn -0.72827 -0.43823 -0.52686
vn -0.72591 -0.43626 -0.53172
vn -0.61419 -0.26687 -0.74266
vn -0.62944 -0.30456 0.71488
vn -0.79253 0.54497 -0.2737
vn -0.92835 0.09733 -0.35873
vn -0.92677 0.10299 -0.36123
vn -0.26714 0.22721 -0.93649
vn -0.33919 -0.06607 -0.9384
vn -0.98318 -0.1384 -0.1192
vn -0.9585 0.14302 0.24661
vn -0.45779 0.73112 0.50585
vn -0.27593 0.42177 -0.8637
vn -0.27416 0.4072 -0.87122
vn 0.09603 -0.00977 0.99533
vn -0.33919 -0.06607 -0.9384
vn -0.67801 -0.4013 -0.61584
vn -0.80535 -0.52789 0.26972
vn -0.76304 -0.59173 0.26006
vn -0.89588 -0.41881 0.14831
vn -0.89591 -0.41841 0.14922
vn -0.93015 -0.23345 0.28343
vn -0.9622 0.01365 0.27199
vn -0.90275 0.41594 -0.10967
vn -0.89798 0.41961 -0.13251
vn -0.83648 0.22221 -0.50092
vn -0.83695 0.09934 -0.53819
vn -0.68462 -0.44669 0.57599
vn -0.00163 0.33807 0.94112
vn 0.21517 0.0707 0.97402
vn -0.0207 0.04641 0.99871
vn -0.00163 0.33807 0.94112
vn -0.2675 -0.58913 0.76247
vn -0.26758 -0.58899 0.76256
vn -0.26685 -0.58835 0.7633
vn -0.28109 -0.82216 0.49501
vn -0.25265 -0.86443 0.43465
vn 0.77541 0.54262 0.32296
vn 0.72299 0.61602 0.31275
vn 0.8239 0.53645 0.18278
vn -0.29112 -0.4416 -0.84867
vn -0.27008 -0.46815 -0.84136
vn -0.17937 0.97039 0.16176
vn -0.19829 0.97125 0.13171
vn -0.30396 -0.02283 -0.95241
vn -0.30518 -0.02022 -0.95208
vn -0 -1 -0
vn -0 -1 -0
vn -0.68816 0.2151 0.69294
vn -0.26758 -0.58914 0.76244
vn -0.26752 -0.58924 0.76239
vn -0.26747 -0.58927 0.76238
vn -0.2675 -0.58913 0.76247
vn -0.26738 -0.58926 0.76242
vn -0.3371 0.15404 0.92878
vn -0.33826 0.15157 0.92877
vn -0.33709 0.15404 0.92878
vn -0.33267 0.83198 0.44401
vn -0.32658 0.8367 0.43963
vn 0.67591 -0.02693 0.73649
vn 0.64988 0.29835 0.69903
vn 0.13406 -0.49887 0.85624
vn 0.31345 0.01607 0.94947
vn -0.41986 0.81871 -0.39171
vn -0.41975 0.81869 -0.39186
vn -0.4557 -0.70624 0.54181
vn -0.45066 -0.70292 0.55028
vn -0.33734 0.1555 0.92845
vn -0.33932 0.15333 0.92809
vn -0.34019 0.15366 0.92772
vn 0.65164 0.3126 0.69112
vn -0.30982 0.30395 -0.9009
vn -0.29945 0.29674 -0.90679
vn -0.42268 -0.7818 -0.45841
vn -0.28519 -0.90951 -0.30241
vn 0.25832 0.11425 -0.95928
vn -0.37278 -0.33349 -0.86592
vn -0.371 -0.33463 -0.86625
vn 0.24259 -0.35107 0.90438
vn 0.89253 0.2116 0.39827
vn -0.3199 -0.23268 0.91844
vn -0.39595 -0.4092 0.82206
vn -0.2675 -0.58913 0.76247
vn -0.90978 -0.23906 0.33935
vn -0.43792 -0.06179 0.89689
vn -0.43634 -0.06399 0.8975
vn -0.43533 -0.06468 0.89794
vn 0.61836 -0.77224 0.1459
vn 0.89747 -0.40941 -0.16409
vn 0.79318 0.54588 -0.26998
vn 0.89736 0.37509 -0.23251
vn -0.37379 0.89118 -0.25707
vn -0.33908 0.89288 -0.29628
vn -0.35152 0.38232 -0.85456
vn -0.34789 0.37975 -0.85718
vn -0.3371 0.15404 0.92878
vn -0.05865 0.96574 0.25278
vn 0.07479 0.98186 0.17425
vn -0.71055 0.15793 0.68569
vn -0.69046 0.19155 0.69755
vn -0.32502 0.87903 0.34882
vn -0.47089 0.54248 -0.69569
vn -0.46648 0.54176 -0.69921
vn -0.80661 -0.51994 0.28114
vn -0.90586 -0.40681 -0.11801
vn -0.93538 -0.2077 -0.28624
vn -0.83812 -0.36986 -0.40094
vn 0.31127 -0.30884 0.89874
vn -0.39841 -0.40573 0.82259
vn 0.52789 0.73023 0.4337
vn 0.33709 0.86711 0.36674
vn 0.00884 0.89289 0.45018
vn -0.97943 -0.10378 -0.17304
vn -0.75987 -0.64376 0.09043
vn -0.79651 -0.54427 0.26335
vn -0.69831 0.71299 0.06329
vn -0.71672 0.62469 0.30998
vn -0.21886 0.45685 -0.8622
vn -0.22134 0.5124 -0.82973
vn -0.15871 -0.54953 -0.82026
vn 0.15871 -0.54953 -0.82026
vn 0.08704 -0.30039 -0.94984
vn -0.08704 -0.30039 -0.94984
vn 0.62994 -0.3685 0.68365
vn -0.98667 -0.02634 0.16059
vn -0.13792 0.96999 0.20023
vn -0.43531 0.83048 0.34757
vn -0.40522 -0.46451 -0.78742
vn -0.90636 -0.196 0.37429
vn 0.96939 0.00508 0.24546
vn 0.03909 -0.80777 0.58821
vn 0.72719 0.40824 0.55184
vn 0.77316 -0.51309 0.37277
vn 0.78701 -0.49847 0.3635
vn -0.42829 -0.0799 0.9001
vn -0.44861 -0.06614 0.89128
vn -0.44542 -0.06078 0.89326
vn -0.75752 -0.64668 0.08928
vn -0.82837 -0.50109 0.25044
vn -0.81988 -0.2335 -0.52275
vn -0.95757 -0.08754 -0.27457
vn -0.43489 -0.06213 0.89834
vn -0.44457 -0.06104 0.89366
vn -0.82785 -0.51097 0.23147
vn 0 -0.53799 -0.84295
vn 0.45066 -0.70292 0.55028
vn 0.4557 -0.70624 0.54181
vn 0.33734 0.1555 0.92845
vn 0.3371 0.15404 0.92878
vn 0.33932 0.15333 0.92809
vn 0.33826 0.15157 0.92877
vn 0.34019 0.15366 0.92772
vn 0.33267 0.83198 0.44401
vn 0.32658 0.8367 0.43963
vn 0.44542 -0.06078 0.89326
vn 0.44861 -0.06614 0.89128
vn 0.42829 -0.0799 0.9001
vn 0.43792 -0.06179 0.89689
vn 0.43634 -0.06399 0.8975
vn 0.26685 -0.58835 0.7633
vn 0.26758 -0.58899 0.76256
vn 0.2675 -0.58913 0.76247
vn 0.26747 -0.58927 0.76238
vn 0.2675 -0.58913 0.76247
vn 0.2675 -0.58913 0.76247
vn 0.37379 0.89118 -0.25707
vn 0.33908 0.89288 -0.29628
vn 0.26738 -0.58926 0.76242
vn 0.82837 -0.50109 0.25044
vn 0.82785 -0.51097 0.23147
vn 0.79651 -0.54427 0.26335
vn 0.75987 -0.64376 0.09043
vn 0.75752 -0.64668 0.08928
vn 0.35152 0.38232 -0.85456
vn 0.34789 0.37975 -0.85718
vn 0.27008 -0.46815 -0.84136
vn 0.29112 -0.4416 -0.84867
vn 0.17937 0.97039 0.16176
vn 0.19829 0.97125 0.13171
vn 0.30518 -0.02022 -0.95208
vn 0.30396 -0.02283 -0.95241
vn 0.34063 -0.03785 -0.93944
vn 0.1103 -0.1483 -0.98277
vn 0.41986 0.81871 -0.39171
vn 0.41975 0.81869 -0.39186
vn 0.13792 0.96999 0.20023
vn 0.43531 0.83048 0.34757
vn 0.30982 0.30395 -0.9009
vn 0.29945 0.29674 -0.90679
vn 0.371 -0.33463 -0.86625
vn 0.37278 -0.33349 -0.86592
vn 0.22134 0.5124 -0.82973
vn 0.30237 0.52733 -0.79403
vn 0.21886 0.45685 -0.8622
vn 0.69046 0.19155 0.69755
vn 0.71055 0.15793 0.68569
vn 0.32502 0.87903 0.34882
vn 0.47089 0.54248 -0.69569
vn 0.46648 0.54176 -0.69921
vn 0.40522 -0.46451 -0.78742
vn 0.90636 -0.196 0.37429
vn 0.81988 -0.2335 -0.52275
vn 0.95757 -0.08754 -0.27457
vn 0.97943 -0.10378 -0.17304
vn 0.43489 -0.06213 0.89834
vn 0.44457 -0.06104 0.89366
vn -0.78701 -0.49847 0.3635
vn -0.77316 -0.51309 0.37277
vn -0.00884 0.89289 0.45018
vn -0.33709 0.86711 0.36674
vn -0.52789 0.73023 0.4337
vn 0.43533 -0.06468 0.89794
vn 0.42268 -0.7818 -0.45841
vn 0.28519 -0.90951 -0.30241
vn 0.69831 0.71299 0.06329
vn 0.71672 0.62469 0.30998
vn -0.03909 -0.80777 0.58821
vn -0.72719 0.40824 0.55184
vn 0.80661 -0.51994 0.28114
vn 0.90586 -0.40681 -0.11801
vn 0.83812 -0.36986 -0.40094
vn 0.93538 -0.2077 -0.28624
vn 0.0207 0.04641 0.99871
vn -0.21517 0.0707 0.97402
vn 0.00163 0.33807 0.94112
vn -0.25832 0.11425 -0.95928
vn -0.61836 -0.77224 0.1459
vn 0.28109 -0.82216 0.49501
vn 0.25265 -0.86443 0.43465
vn -0.62994 -0.3685 0.68365
vn -0.96939 0.00508 0.24546
vn -0.89747 -0.40941 -0.16409
vn -0.13406 -0.49887 0.85624
vn -0.31345 0.01607 0.94947
vn 0.05865 0.96574 0.25278
vn -0.07479 0.98186 0.17425
vn 0.98667 -0.02634 0.16059
vn -0.24259 -0.35107 0.90438
vn 0.39841 -0.40573 0.82259
vn 0.39595 -0.4092 0.82206
vn 0.33709 0.15404 0.92878
vn 0.3371 0.15404 0.92878
vn 0.00163 0.33807 0.94112
vn -0.72299 0.61602 0.31275
vn -0.77541 0.54262 0.32296
vn -0.8239 0.53644 0.18278
vn -0.89736 0.37509 -0.23251
vn 0 -1 -0
vn 0 -1 -0
vn 0 -1 -0
vn -0.65164 0.3126 0.69112
vn -0.64988 0.29835 0.69903
vn -0.31127 -0.30884 0.89874
vn 0.67801 -0.4013 -0.61584
vn 0.45173 0.27659 -0.84819
vn 0.45552 0.30194 -0.83746
vn 0.72827 -0.43823 -0.52686
vn 0.72591 -0.43626 -0.53172
vn 0.61419 -0.26687 -0.74266
vn 0.90978 -0.23906 0.33935
vn 0.93015 -0.23345 0.28343
vn 0.89591 -0.41841 0.14922
vn 0.3199 -0.23268 0.91844
vn -0.79318 0.54588 -0.26998
vn -0.67591 -0.02693 0.73649
vn -0.89253 0.2116 0.39827
vn 0.27416 0.4072 -0.87122
vn 0.27593 0.42177 -0.8637
vn 0.3371 0.15404 0.92878
vn 0.83648 0.22221 -0.50092
vn 0.83695 0.09934 -0.53819
vn 0.89798 0.41961 -0.13251
vn 0.90275 0.41594 -0.10967
vn 0.33919 -0.06607 -0.9384
vn 0.33919 -0.06607 -0.9384
vn 0.30143 0.58262 0.75478
vn 0.30415 0.57778 0.75741
vn 0.89588 -0.41881 0.14831
vn 0.35085 0.61138 0.70931
vn 0.32849 0.623 0.70991
vn 0.80535 -0.52789 0.26972
vn 0.76304 -0.59173 0.26006
vn 0.26758 -0.58914 0.76244
vn 0.68462 -0.44669 0.57599
vn 0.92835 0.09733 -0.35873
vn 0.92677 0.10299 -0.36123
vn 0.26714 0.22721 -0.93649
vn 0.68816 0.2151 0.69294
vn 0.79253 0.54497 -0.2737
vn -0.09603 -0.00977 0.99533
vn 0.45779 0.73112 0.50585
vn 0.59218 -0.06635 0.80307
vn 0.58924 -0.06294 0.8055
vn 0.9622 0.01365 0.27199
vn 0.81986 0.57236 -0.01561
vn 0.80788 0.58858 0.02996
vn 0.86517 0.19717 -0.46108
vn -0.36558 -0.13892 0.92035
vn 0.96598 -0.21298 0.14671
vn 0.92291 -0.23758 0.30298
vn 0.95345 -0.28137 0.10846
vn 0.9383 0.28092 -0.2017
vn 0.93404 0.2991 -0.19523
vn 0.62944 -0.30456 0.71488
vn 0.57422 -0.40123 0.71365
vn 0.18551 0.3995 -0.89776
vn 0.98318 -0.1384 -0.1192
vn 0.98343 -0.13749 -0.11818
vn 0.81208 0.57053 -0.12258
vn 0.89732 0.38711 -0.21203
vn 0.9585 0.14302 0.24661
vn 0.11274 0.26965 0.95634
vn 0.57422 -0.40123 0.71365
vn 0.99151 -0.11309 -0.06418
vn 0.99024 -0.13789 0.02031
vn 0.26752 -0.58924 0.76239
f 1//1 2//1 3//1
f 2//2 4//2 3//2
f 2//3 1//3 5//3
f 1//4 6//4 5//4
f 2//5 5//5 7//5
f 5//6 8//6 7//6
f 2//7 7//7 9//7
f 4//8 2//8 9//8
f 1//9 3//9 10//9
f 3//10 11//10 10//10
f 1//11 10//11 6//11
f 12//12 13//12 14//12
f 13//13 10//13 14//13
f 14//14 10//14 11//14
f 13//15 12//15 15//15
f 6//16 13//16 15//16
f 13//17 6//17 10//17
f 16//18 17//18 18//18
f 17//19 16//19 19//19
f 20//20 17//20 19//20
f 17//21 20//21 21//21
f 20//21 22//21 21//21
f 21//22 22//22 23//22
f 18//21 17//21 21//21
f 16//23 24//23 25//23
f 24//24 16//24 26//24
f 27//25 24//25 26//25
f 24//26 27//26 11//26
f 27//27 28//27 11//27
f 24//28 11//28 29//28
f 25//29 24//29 29//29
f 30//30 4//30 31//30
f 4//31 9//31 31//31
f 4//32 30//32 32//32
f 3//33 4//33 32//33
f 29//34 3//34 32//34
f 3//35 29//35 11//35
f 7//36 8//36 33//36
f 7//37 33//37 34//37
f 9//38 7//38 34//38
f 25//39 29//39 32//39
f 19//40 25//40 32//40
f 25//41 19//41 16//41
f 35//21 18//21 21//21
f 18//42 35//42 16//42
f 16//43 35//43 26//43
f 20//44 19//44 36//44
f 22//45 20//45 36//45
f 37//21 35//21 21//21
f 35//46 37//46 26//46
f 36//47 19//47 32//47
f 9//48 34//48 31//48
f 11//49 28//49 38//49
f 14//50 11//50 38//50
f 39//51 40//51 41//51
f 40//52 6//52 41//52
f 41//53 6//53 42//53
f 40//54 39//54 43//54
f 40//55 43//55 44//55
f 45//56 40//56 44//56
f 40//57 45//57 46//57
f 6//58 40//58 46//58
f 12//59 14//59 47//59
f 12//60 47//60 48//60
f 47//61 49//61 48//61
f 48//62 49//62 50//62
f 15//63 12//63 48//63
f 14//64 38//64 51//64
f 38//65 52//65 51//65
f 51//66 52//66 53//66
f 14//67 51//67 54//67
f 47//68 14//68 54//68
f 6//69 15//69 42//69
f 15//70 48//70 42//70
f 42//71 48//71 55//71
f 6//72 46//72 56//72
f 57//73 6//73 56//73
f 6//74 57//74 58//74
f 5//75 6//75 58//75
f 5//76 58//76 8//76
f 58//77 59//77 8//77
f 60//78 37//78 23//78
f 37//79 21//79 23//79
f 37//80 60//80 26//80
f 38//81 28//81 52//81
f 28//82 61//82 52//82
f 52//83 61//83 62//83
f 61//84 63//84 62//84
f 62//85 63//85 64//85
f 43//86 39//86 65//86
f 39//86 66//86 65//86
f 67//87 43//87 68//87
f 43//88 65//88 68//88
f 43//89 67//89 44//89
f 67//90 69//90 44//90
f 27//91 26//91 70//91
f 26//92 23//92 70//92
f 27//93 70//93 63//93
f 27//94 63//94 28//94
f 8//95 59//95 33//95
f 59//96 71//96 33//96
f 39//97 41//97 72//97
f 73//98 39//98 72//98
f 39//99 73//99 74//99
f 73//100 67//100 74//100
f 74//101 67//101 68//101
f 26//102 60//102 23//102
f 33//103 71//103 34//103
f 71//104 75//104 34//104
f 32//105 30//105 76//105
f 77//106 32//106 76//106
f 32//107 77//107 36//107
f 34//108 75//108 31//108
f 75//109 78//109 31//109
f 47//110 54//110 49//110
f 65//111 66//111 79//111
f 65//112 79//112 80//112
f 68//113 65//113 80//113
f 28//114 63//114 61//114
f 55//115 41//115 42//115
f 41//116 55//116 72//116
f 55//117 81//117 72//117
f 72//118 81//118 82//118
f 36//119 77//119 63//119
f 36//120 63//120 70//120
f 36//121 70//121 22//121
f 70//122 23//122 22//122
f 44//123 69//123 45//123
f 69//124 83//124 45//124
f 45//125 83//125 46//125
f 83//126 56//126 46//126
f 74//127 66//127 39//127
f 66//128 74//128 79//128
f 74//129 84//129 79//129
f 85//130 86//130 87//130
f 86//131 88//131 87//131
f 86//132 85//132 89//132
f 86//133 89//133 90//133
f 89//134 91//134 90//134
f 86//135 90//135 92//135
f 86//136 92//136 93//136
f 92//137 88//137 93//137
f 93//138 88//138 86//138
f 79//139 84//139 80//139
f 80//140 84//140 68//140
f 55//141 48//141 81//141
f 48//142 50//142 81//142
f 81//143 50//143 82//143
f 94//144 95//144 88//144
f 95//145 94//145 96//145
f 77//146 95//146 96//146
f 95//147 77//147 76//147
f 88//148 95//148 76//148
f 97//149 30//149 78//149
f 30//150 31//150 78//150
f 30//151 97//151 98//151
f 97//152 99//152 98//152
f 98//153 99//153 100//153
f 76//154 30//154 98//154
f 54//155 51//155 49//155
f 84//156 74//156 68//156
f 88//157 76//157 98//157
f 88//158 98//158 87//158
f 90//159 91//159 101//159
f 90//160 101//160 92//160
f 49//161 51//161 102//161
f 49//162 102//162 103//162
f 49//163 103//163 104//163
f 49//164 104//164 50//164
f 104//165 82//165 50//165
f 102//166 51//166 103//166
f 51//167 53//167 103//167
f 103//168 53//168 72//168
f 63//169 77//169 64//169
f 77//170 105//170 64//170
f 101//171 94//171 92//171
f 94//172 88//172 92//172
f 94//21 101//21 106//21
f 101//21 107//21 106//21
f 106//21 107//21 108//21
f 96//21 94//21 106//21
f 104//173 103//173 82//173
f 103//174 72//174 82//174
f 105//21 96//21 106//21
f 96//175 105//175 77//175
f 101//176 91//176 107//176
f 91//176 108//176 107//176
f 73//177 72//177 109//177
f 72//178 110//178 109//178
f 73//179 109//179 111//179
f 109//180 112//180 111//180
f 67//181 73//181 111//181
f 113//182 67//182 114//182
f 67//183 111//183 114//183
f 67//184 113//184 115//184
f 69//185 67//185 115//185
f 72//186 53//186 116//186
f 53//187 117//187 116//187
f 116//188 117//188 118//188
f 110//189 72//189 119//189
f 72//190 120//190 119//190
f 53//191 52//191 117//191
f 52//192 121//192 117//192
f 117//193 121//193 122//193
f 52//194 62//194 123//194
f 62//195 124//195 123//195
f 123//196 124//196 125//196
f 69//197 115//197 126//197
f 83//198 69//198 126//198
f 62//199 64//199 124//199
f 64//200 105//200 127//200
f 105//201 128//201 127//201
f 127//202 128//202 129//202
f 128//203 130//203 129//203
f 124//204 64//204 127//204
f 83//205 126//205 131//205
f 56//206 83//206 131//206
f 128//21 105//21 106//21
f 57//207 56//207 132//207
f 56//208 131//208 132//208
f 57//209 132//209 58//209
f 132//210 133//210 58//210
f 59//211 58//211 134//211
f 58//212 133//212 134//212
f 134//213 133//213 135//213
f 133//214 136//214 135//214
f 59//215 134//215 137//215
f 71//216 59//216 137//216
f 98//217 100//217 138//217
f 98//218 138//218 87//218
f 71//219 137//219 139//219
f 75//220 71//220 139//220
f 78//221 75//221 140//221
f 75//222 139//222 140//222
f 78//223 140//223 99//223
f 140//224 141//224 99//224
f 97//225 78//225 99//225
f 87//226 138//226 142//226
f 85//227 87//227 142//227
f 85//228 142//228 89//228
f 89//229 142//229 143//229
f 91//230 89//230 143//230
f 91//231 143//231 108//231
f 108//232 143//232 144//232
f 108//233 144//233 130//233
f 144//234 138//234 130//234
f 130//235 138//235 129//235
f 108//21 130//21 106//21
f 130//21 128//21 106//21
f 145//236 146//236 116//236
f 146//237 72//237 116//237
f 146//238 145//238 147//238
f 145//239 148//239 147//239
f 146//240 147//240 120//240
f 147//241 149//241 120//241
f 120//242 149//242 119//242
f 146//243 120//243 72//243
f 100//244 99//244 150//244
f 127//245 100//245 150//245
f 100//246 127//246 129//246
f 138//247 100//247 129//247
f 116//248 118//248 148//248
f 116//249 148//249 145//249
f 144//250 143//250 142//250
f 144//251 142//251 151//251
f 142//252 138//252 151//252
f 151//253 138//253 144//253
f 147//254 148//254 149//254
f 148//255 152//255 149//255
f 149//256 152//256 153//256
f 127//257 150//257 154//257
f 127//258 154//258 124//258
f 117//259 122//259 155//259
f 122//260 152//260 155//260
f 117//261 155//261 148//261
f 117//262 148//262 118//262
f 124//263 154//263 156//263
f 124//264 156//264 157//264
f 124//265 157//265 125//265
f 111//266 112//266 158//266
f 159//267 111//267 158//267
f 111//268 159//268 114//268
f 148//269 155//269 152//269
f 114//270 159//270 160//270
f 161//271 114//271 160//271
f 114//272 161//272 113//272
f 161//273 109//273 113//273
f 162//274 149//274 153//274
f 149//275 162//275 163//275
f 162//276 132//276 163//276
f 119//277 149//277 163//277
f 164//278 165//278 156//278
f 165//279 164//279 166//279
f 164//21 167//21 166//21
f 166//21 167//21 168//21
f 169//280 165//280 170//280
f 165//281 166//281 170//281
f 170//21 166//21 171//21
f 166//21 172//21 171//21
f 165//282 169//282 173//282
f 156//283 165//283 173//283
f 159//284 158//284 160//284
f 140//285 139//285 174//285
f 140//286 174//286 141//286
f 174//287 136//287 141//287
f 99//288 141//288 150//288
f 141//289 175//289 150//289
f 150//290 175//290 176//290
f 119//291 163//291 110//291
f 163//292 132//292 110//292
f 110//293 132//293 177//293
f 160//294 158//294 161//294
f 156//295 154//295 164//295
f 157//296 156//296 173//296
f 158//297 112//297 161//297
f 164//298 154//298 167//298
f 154//299 178//299 167//299
f 161//300 112//300 109//300
f 131//301 126//301 177//301
f 132//302 131//302 177//302
f 126//303 115//303 177//303
f 115//304 113//304 177//304
f 154//305 150//305 178//305
f 150//306 179//306 178//306
f 162//307 153//307 180//307
f 132//308 162//308 180//308
f 109//309 110//309 177//309
f 125//310 157//310 181//310
f 157//311 182//311 181//311
f 125//312 181//312 121//312
f 181//313 122//313 121//313
f 125//314 121//314 52//314
f 152//315 122//315 153//315
f 139//316 137//316 135//316
f 174//317 139//317 135//317
f 150//318 176//318 179//318
f 169//319 170//319 173//319
f 137//320 134//320 135//320
f 173//321 170//321 171//321
f 173//322 171//322 183//322
f 173//323 183//323 182//323
f 157//324 173//324 182//324
f 109//325 177//325 113//325
f 133//326 132//326 184//326
f 136//327 133//327 184//327
f 132//328 180//328 185//328
f 132//329 185//329 184//329
f 122//330 181//330 185//330
f 153//331 122//331 180//331
f 122//332 185//332 180//332
f 181//333 182//333 176//333
f 182//334 179//334 176//334
f 181//335 176//335 175//335
f 185//336 181//336 175//336
f 174//337 135//337 136//337
f 178//338 179//338 183//338
f 179//339 182//339 183//339
f 178//340 183//340 168//340
f 167//341 178//341 168//341
f 171//342 172//342 183//342
f 183//343 172//343 168//343
f 184//344 185//344 175//344
f 168//21 172//21 166//21
f 175//345 141//345 136//345
f 184//346 175//346 136//346
f 52//347 123//347 125//347
# Vertices: 185, normals: 347, texture coordinates: 0, faces: 366

