# OBJ generated by ONSHAPE BY PTC INC, 1.206 Units = meters
mtllib sword.mtl
g Part 4
v 0.0807626 -0.332143 0.0254 
v 0.0807626 -0.332143 0 
v 0.0807626 -0.357543 0 
v 0.0807626 -0.357543 0.0254 
v 0.207763 -0.357543 0 
v 0.207763 -0.357543 0.0254 
v 0.207763 -0.332143 0 
v 0.207763 -0.332143 0.0254 
vn -1 0 0 
vn 0 -1 0 
vn 1 0 0 
vn 0 1 0 
vn 0 0 1 
vn 0 0 -1 
usemtl 0.615686_0.749020_0.278431_0.000000_0.000000
o mesh0
f 1//1 2//1 3//1 
f 3//1 4//1 1//1 
o mesh1
f 4//2 3//2 5//2 
f 5//2 6//2 4//2 
o mesh2
f 6//3 5//3 7//3 
f 7//3 8//3 6//3 
o mesh3
f 8//4 7//4 2//4 
f 2//4 1//4 8//4 
o mesh4
f 8//5 1//5 4//5 
f 4//5 6//5 8//5 
o mesh5
f 5//6 3//6 2//6 
f 2//6 7//6 5//6 
g Part 1
v 0.207763 -0.255943 0.0254 
v 0.207763 -0.255943 0 
v 0.207763 -0.00194342 0 
v 0.207763 -0.00194342 0.0254 
v 0.156963 -0.00194342 0 
v 0.156963 -0.00194342 0.0254 
v 0.156963 0.0234566 0 
v 0.156963 0.0234566 0.0254 
v 0.131563 0.0234566 0 
v 0.131563 0.0234566 0.0254 
v 0.131563 -0.00194342 0 
v 0.131563 -0.00194342 0.0254 
v 0.0807626 -0.255943 0.0254 
v 0.0807626 -0.00194342 0.0254 
v 0.0807626 -0.255943 0 
v 0.0807626 -0.00194342 0 
vn 1 0 0 
vn 0 1 0 
vn -1 0 0 
vn 0 0 1 
vn 0 0 -1 
vn 0 1 0 
vn -1 0 0 
vn 0 -1 0 
usemtl 0.858824_0.360784_0.168627_0.000000_0.000000
o mesh6
f 9//7 10//7 11//7 
f 11//7 12//7 9//7 
o mesh7
f 12//8 11//8 13//8 
f 13//8 14//8 12//8 
o mesh8
f 14//7 13//7 15//7 
f 15//7 16//7 14//7 
o mesh9
f 16//8 15//8 17//8 
f 17//8 18//8 16//8 
o mesh10
f 18//9 17//9 19//9 
f 19//9 20//9 18//9 
o mesh11
f 18//10 20//10 14//10 
f 9//10 12//10 14//10 
f 21//10 9//10 20//10 
f 14//10 20//10 9//10 
f 14//10 16//10 18//10 
f 20//10 22//10 21//10 
o mesh12
f 10//11 19//11 13//11 
f 17//11 15//11 13//11 
f 13//11 19//11 17//11 
f 23//11 24//11 19//11 
f 19//11 10//11 23//11 
f 13//11 11//11 10//11 
o mesh13
f 20//12 19//12 24//12 
f 24//12 22//12 20//12 
o mesh14
f 22//13 24//13 23//13 
f 23//13 21//13 22//13 
o mesh15
f 21//14 23//14 10//14 
f 10//14 9//14 21//14 
g Part 5
v 0.207763 -0.357543 0.0254 
v 0.207763 -0.357543 0 
v 0.0807626 -0.357543 0 
v 0.0807626 -0.357543 0.0254 
v 0.0807626 -0.382943 0 
v 0.0807626 -0.382943 0.0254 
v 0.207763 -0.382943 0 
v 0.207763 -0.382943 0.0254 
vn 0 1 0 
vn -1 0 0 
vn 0 -1 0 
vn 1 0 0 
vn 0 0 1 
vn 0 0 -1 
usemtl 0.952941_0.647059_0.180392_0.000000_0.000000
o mesh16
f 25//15 26//15 27//15 
f 27//15 28//15 25//15 
o mesh17
f 28//16 27//16 29//16 
f 29//16 30//16 28//16 
o mesh18
f 30//17 29//17 31//17 
f 31//17 32//17 30//17 
o mesh19
f 32//18 31//18 26//18 
f 26//18 25//18 32//18 
o mesh20
f 32//19 25//19 28//19 
f 28//19 30//19 32//19 
o mesh21
f 29//20 27//20 26//20 
f 26//20 31//20 29//20 
g Part 6
v 0.207763 -0.382943 0.0254 
v 0.207763 -0.382943 0 
v 0.0807626 -0.382943 0 
v 0.0807626 -0.382943 0.0254 
v 0.0807626 -0.408343 0 
v 0.0807626 -0.408343 0.0254 
v 0.207763 -0.408343 0 
v 0.207763 -0.408343 0.0254 
vn 0 1 0 
vn -1 0 0 
vn 0 -1 0 
vn 1 0 0 
vn 0 0 1 
vn 0 0 -1 
usemtl 0.615686_0.749020_0.278431_0.000000_0.000000
o mesh22
f 33//21 34//21 35//21 
f 35//21 36//21 33//21 
o mesh23
f 36//22 35//22 37//22 
f 37//22 38//22 36//22 
o mesh24
f 38//23 37//23 39//23 
f 39//23 40//23 38//23 
o mesh25
f 40//24 39//24 34//24 
f 34//24 33//24 40//24 
o mesh26
f 40//25 33//25 36//25 
f 36//25 38//25 40//25 
o mesh27
f 37//26 35//26 34//26 
f 34//26 39//26 37//26 
g Part 3
v 0.0807626 -0.306743 0.0254 
v 0.0807626 -0.306743 0 
v 0.0807626 -0.332143 0 
v 0.0807626 -0.332143 0.0254 
v 0.207763 -0.332143 0 
v 0.207763 -0.332143 0.0254 
v 0.207763 -0.306743 0 
v 0.207763 -0.306743 0.0254 
vn -1 0 0 
vn 0 -1 0 
vn 1 0 0 
vn 0 1 0 
vn 0 0 1 
vn 0 0 -1 
usemtl 0.952941_0.647059_0.180392_0.000000_0.000000
o mesh28
f 41//27 42//27 43//27 
f 43//27 44//27 41//27 
o mesh29
f 44//28 43//28 45//28 
f 45//28 46//28 44//28 
o mesh30
f 46//29 45//29 47//29 
f 47//29 48//29 46//29 
o mesh31
f 48//30 47//30 42//30 
f 42//30 41//30 48//30 
o mesh32
f 48//31 41//31 44//31 
f 44//31 46//31 48//31 
o mesh33
f 45//32 43//32 42//32 
f 42//32 47//32 45//32 
g Part 2
v 0.0553626 -0.306743 0.0254 
v 0.0553626 -0.306743 0 
v 0.233163 -0.306743 0 
v 0.233163 -0.306743 0.0254 
v 0.233163 -0.332143 0 
v 0.233163 -0.332143 0.0254 
v 0.283963 -0.332143 0 
v 0.283963 -0.332143 0.0254 
v 0.283963 -0.255943 0 
v 0.283963 -0.255943 0.0254 
v 0.00456265 -0.255943 0 
v 0.00456265 -0.255943 0.0254 
v 0.00456265 -0.332143 0.0254 
v 0.0553626 -0.332143 0.0254 
v 0.00456265 -0.332143 0 
v 0.0553626 -0.332143 0 
vn 0 -1 0 
vn -1 0 0 
vn 1 0 0 
vn 0 1 0 
vn 0 0 1 
vn 0 0 -1 
vn -1 -3.41481e-17 0 
vn 0 -1 0 
vn 1 -2.73185e-16 0 
usemtl 0.615686_0.749020_0.278431_0.000000_0.000000
o mesh34
f 49//33 50//33 51//33 
f 51//33 52//33 49//33 
o mesh35
f 52//34 51//34 53//34 
f 53//34 54//34 52//34 
o mesh36
f 54//33 53//33 55//33 
f 55//33 56//33 54//33 
o mesh37
f 56//35 55//35 57//35 
f 57//35 58//35 56//35 
o mesh38
f 58//36 57//36 59//36 
f 59//36 60//36 58//36 
o mesh39
f 56//37 58//37 52//37 
f 60//37 49//37 52//37 
f 52//37 58//37 60//37 
f 61//37 62//37 49//37 
f 49//37 60//37 61//37 
f 52//37 54//37 56//37 
o mesh40
f 59//38 57//38 51//38 
f 55//38 53//38 51//38 
f 63//38 59//38 50//38 
f 51//38 57//38 55//38 
f 51//38 50//38 59//38 
f 50//38 64//38 63//38 
o mesh41
f 60//39 59//39 63//39 
f 63//39 61//39 60//39 
o mesh42
f 61//40 63//40 64//40 
f 64//40 62//40 61//40 
o mesh43
f 62//41 64//41 50//41 
f 50//41 49//41 62//41 
