# File generated by ImageToStl.com - Free Image and 3D model conversion tools

o obj1
v -5.79062605 -7.24109411 1E-08
v -6.25477552 -1.27555799 1E-08
v -0.99343824 -2.53227019 1E-08
v -4.15362453 -6.72229433 1E-08
v -3.30235267 -9.34710884 1E-08
v -1.36458862 -7.32520008 1E-08
v 1.93408084 -4.12230968 1E-08
v -0.02427095 -8.66379356 1E-08
v -1.76916933 4.71264553 1E-08
v 2.27323937 4.520051 1E-08
v -3.76969719 -2.61653614 4.57636261
v -1.7585144 5.52432919 3.07955289
v -4.25795364 -6.98635197 2.95000124
v 0.83177513 -3.47477913 4.7811842
v -1.31421173 -7.22895765 2.87334347
v 1.57047534 5.44053936 3.22819996
v -6.41237068 -4.3423357 10.2041111
v -6.02311993 4.65815878 12.94799995
v 1.32038236 -4.77417469 8.13387871
v -2.39100909 -1.66206932 14.52433586
v -1.89712894 6.54922199 17.15209389
v 1.55781364 9.49533367 7.60372543
v 1.48255658 7.78683281 25.83625031
v 2.19464135 11.0260334 16.69373703
v 7.87300205 6.95173645 34.08063889
v 7.87300205 13.97281647 12.96694756
v 3.91049433 20.74278069 4.58116531
v 6.37250996 22.5668335 1E-08
v 5.89608431 15.11698818 1E-08
v 2.66275573 14.6982317 6.17325068
v 7.87300205 22.51307678 1E-08
v 7.87300205 19.68580627 1E-08
v 7.87300205 18.82026291 7.95576668
v 7.87300205 22.9225235 10.78706169
v 4.46513939 24.92689514 8.97410679
v 6.63091707 28.31101227 7.29956675
v 7.87300205 28.46922493 7.25966358
v 6.19350719 27.89401436 15.72552776
v 6.41790152 29.50475693 15.89253712
v 7.87300205 29.70044518 15.91189289
v 5.36317396 8.32566929 1E-08
v 2.45349288 5.85926819 32.78846359
v 0.11880094 6.3375988 40.73383331
v 7.87300205 7.9523468 43.03968048
v 0.94845158 0.79473549 48.69772339
v 7.87300205 0.90635699 52.4782486
v 1.11904168 -5.90387154 47.14319611
v 7.87300205 -9.79780483 49.8584938
v 3.65409422 -6.7707243 40.77165985
v 3.45973778 -7.03938103 43.48863602
v 2.20563483 -5.69468975 43.57894516
v 2.53197479 -6.4139061 40.66506958
v 3.91197062 -13.8081007 38.63811493
v 3.02330351 -13.83298302 34.29927063
v 7.87300205 -15.07716751 34.46627045
v 7.87300205 -14.8132391 40.21440125
v 7.87300205 -12.82446003 31.77924919
v 5.54713583 -6.40906811 26.77669907
v 7.87300205 -7.48566103 26.97688866
v 7.87300205 7.87633753 1E-08
v -4.95688152 -1.23461843 22.29938698
v -3.51419854 -1.31646848 27.04192352
v -0.30926216 -7.53895044 18.96985626
v 2.00716853 -8.85497761 22.67015266
v 0.43278426 -3.406286 26.98395348
v -0.19446713 -0.39797646 31.05773354
v 3.29158545 -7.79635286 23.23663712
v 2.12406373 -7.78178549 16.20611191
v 7.87300205 -6.21243668 6.68588686
v 7.87300205 -9.63997936 16.52868652
v -1.33752012 -0.6098358 17.497715
v 5.31924915 26.68491745 18.28357124
v 4.63096666 29.7185154 18.61824036
v 7.87300205 26.43649864 15.64481544
v 7.87300205 24.25283623 18.71476555
v 7.87300205 32.20988846 20.7290535
v 6.21072817 27.09984398 25.2127037
v 5.26005936 29.69849586 22.97774506
v 6.92263699 30.21973991 28.45297241
v 2.85751796 -9.38541031 18.96028519
v 4.13901997 -10.12369156 19.91249466
v 3.9353528 -9.99246597 21.24877167
v 4.78310347 -8.68934631 18.48951721
v 6.23049545 -9.19019604 19.83423233
v 6.48568392 -9.34548378 23.37683487
v 4.9856081 -8.80631924 20.99210548
v -2.79548359 1.72839308 36.79282761
v -1.23155451 -6.2433238 39.50387955
v 7.87300205 -1.12709713 1E-08
v 3.16403055 0.66794634 1E-08
v 3.03751945 5.56756592 4.99541044
v 5.91828632 -9.02353573 16.65111351
v 7.87300205 -9.68495846 18.48859024
v 7.87300205 -9.73100185 20.99123383
v 7.87300205 -9.77248955 23.47716904
v 7.87300205 -9.70970345 19.83374786
v 1.57221675 -6.68105268 45.21941757
v 3.91725588 -8.41179943 44.81315613
v 2.10592937 -8.36533833 40.24801636
v 3.95136547 -9.53591156 40.65447617
v 7.87300205 -12.03031158 41.51931381
v -2.12641215 -5.87817049 36.44981384
v 7.87300205 27.08582878 25.22097397
v 7.87300205 30.21973991 28.45297241
v 2.39902353 -9.08100414 17.33812904
v 21.53662872 -7.24109411 1E-08
v 19.89962769 -6.72229433 1E-08
v 16.73944092 -2.53227019 1E-08
v 22.0007782 -1.27555799 1E-08
v 19.04835701 -9.34710884 1E-08
v 17.11059189 -7.32520008 1E-08
v 15.77027321 -8.66379356 1E-08
v 13.81192207 -4.12230968 1E-08
v 17.51517296 4.71264553 1E-08
v 13.47276402 4.520051 1E-08
v 17.50451851 5.52432919 3.07955289
v 19.51569939 -2.61653614 4.57636261
v 20.00395584 -6.98635197 2.95000124
v 17.060215 -7.22895765 2.87334347
v 14.91422749 -3.47477913 4.7811842
v 14.17552853 5.44053936 3.22819996
v 21.76912117 4.6581583 12.94799995
v 22.15837479 -4.3423357 10.2041111
v 14.42562103 -4.77417469 8.13387871
v 17.64313316 6.54922199 17.15209389
v 18.13701248 -1.66206932 14.52433586
v 14.18818951 9.49533367 7.60372543
v 13.55136204 11.0260334 16.69373703
v 14.26344585 7.78683281 25.83625031
v 11.8355093 20.74278069 4.58116531
v 13.08324814 14.6982317 6.17325068
v 9.84991932 15.11698818 1E-08
v 9.37349319 22.5668335 1E-08
v 11.28086281 24.92689514 8.97410679
v 9.11508656 28.31101227 7.29956675
v 9.32810211 29.50475693 15.89253712
v 9.55249691 27.89401436 15.72552776
v 10.38282967 8.32567024 1E-08
v 13.29251099 5.85926819 32.78846359
v 15.62720108 6.3375988 40.73383331
v 14.79755211 0.79473543 48.69772339
v 14.62696075 -5.90387154 47.14319611
v 12.09190845 -6.7707243 40.77165985
v 13.21402836 -6.4139061 40.66506958
v 13.54036903 -5.69468975 43.57894516
v 12.28626537 -7.03938103 43.48863602
v 11.83403301 -13.8081007 38.63811493
v 12.72269917 -13.83298302 34.29927063
v 10.1988678 -6.40906811 26.77669907
v 19.26020241 -1.31646848 27.04192352
v 20.70288467 -1.23461843 22.29938698
v 13.73883533 -8.85497761 22.67015266
v 16.05526543 -7.53895044 18.96985626
v 15.94047165 -0.39797646 31.05773354
v 15.31321907 -3.406286 26.98395348
v 12.45441723 -7.79635286 23.23663712
v 13.62193966 -7.78178549 16.20611191
v 17.0835247 -0.6098358 17.497715
v 11.11503696 29.7185154 18.61824036
v 10.426754 26.68491745 18.28357124
v 10.48594475 29.69849586 22.97774506
v 9.53527546 27.09984398 25.2127037
v 8.82336617 30.21973991 28.45297241
v 11.81064987 -9.99246597 21.24877167
v 11.60698318 -10.12369156 19.91249466
v 12.88848495 -9.38541031 18.96028519
v 10.96289921 -8.68934631 18.48951721
v 9.5155077 -9.19019604 19.83423233
v 9.26031876 -9.34548378 23.37683487
v 10.76039505 -8.80631924 20.99210548
v 16.97755814 -6.2433238 39.50387955
v 18.54148674 1.72839332 36.79282761
v 12.58197308 0.66794628 1E-08
v 12.7084837 5.56756592 4.99541044
v 9.82771683 -9.02353573 16.65111351
v 11.8287468 -8.41179943 44.81315613
v 14.17378616 -6.68105268 45.21941757
v 13.64007378 -8.36533833 40.24801636
v 11.79463768 -9.53591156 40.65447617
v 17.87241364 -5.87817049 36.44981384
v 13.34698009 -9.08100414 17.33812904
vn -0 -0 -1
vn -0 0 -1
vn -0 0 -1
vn -0 -0 -1
vn -0.80128 0.29378 0.5212
vn -0.79088 0.59243 -0.15341
vn -0.88228 -0.07441 0.46481
vn -0.88503 -0.06886 0.46042
vn 0.77696 -0.57472 0.25696
vn 0.78394 -0.33804 0.52074
vn 0.97373 -0.04169 0.22386
vn 0.97258 -0.03817 0.2294
vn 0.0357 0.96633 -0.25482
vn 0.04589 0.96325 -0.26467
vn 0.30127 -0.95063 -0.07444
vn -0.94945 -0.30792 -0.06114
vn 0.72193 -0.69189 0.01052
vn -0.70619 -0.7071 0.03607
vn -0.0489 -0.78751 0.61436
vn -0.91166 0.15541 -0.38044
vn -0.91171 0.1553 -0.38036
vn -0.15814 -0.92823 -0.33671
vn -0.14588 -0.92455 -0.35202
vn -0.655 -0.19429 0.73022
vn -0.655 -0.19429 0.73022
vn -0.48961 0.86724 0.09042
vn -0.68774 0.53148 -0.49451
vn 0.02075 0.99514 0.09631
vn -0.71631 0.67342 0.1828
vn -0.73986 0.66999 -0.06099
vn -0.27238 0.91303 0.30362
vn -0.27549 0.91267 0.3019
vn 0.07748 -0.8779 0.47253
vn -0.88869 0.05683 -0.45497
vn -0.88587 0.06176 -0.4598
vn -0.61105 -0.44964 0.65149
vn -0.69246 -0.47673 0.5415
vn -0.86467 0.40919 -0.29139
vn -0.85804 0.42163 -0.29325
vn -0.11802 0.7677 -0.62985
vn 0.02813 0.78506 -0.61878
vn -0.97331 0.115 0.19863
vn -0.85867 0.50433 -0.09135
vn -0.13015 0.98161 -0.13968
vn -0.12953 0.9817 -0.13959
vn -0.88564 0.0695 -0.45915
vn -0.88849 0.06374 -0.45446
vn -0.25529 0.92195 0.29127
vn -0.17139 0.97912 -0.10931
vn -0.1713 0.97913 -0.10936
vn -0.31991 0.76169 0.56346
vn -0.32593 0.75758 0.56554
vn -0.46697 -0.21117 0.85869
vn -0.46586 -0.21035 0.85949
vn -0.7301 -0.67294 -0.11877
vn -0.31397 -0.92935 0.19422
vn -0.24993 -0.9666 0.05673
vn -0.26223 -0.96399 0.04426
vn -0.17188 -0.75492 -0.6329
vn -0.23983 -0.64955 -0.7215
vn -0.23848 -0.64947 -0.72202
vn -0.83115 0.49082 0.26131
vn -0.8337 0.49107 0.25259
vn -0.7251 -0.65185 0.22209
vn -0.72681 -0.65401 0.20981
vn -0.39824 -0.76613 0.50444
vn -0.77845 0.16166 0.60654
vn 0.13588 -0.59054 0.79549
vn -0.33015 -0.64272 0.69131
vn -0.77508 -0.61345 -0.1514
vn -0.26959 -0.90941 -0.31668
vn -0.27642 -0.90924 -0.31125
vn -0.7556 -0.25612 -0.60288
vn -0.74265 -0.212 -0.63524
vn -0.90742 -0.16316 -0.38725
vn -0.8178 0.17091 -0.54954
vn -0.56128 -0.67441 -0.47971
vn -0.58065 -0.64131 -0.50157
vn -0.42204 0.83939 -0.34251
vn -0.11241 0.88126 -0.45908
vn -0.96252 -0.23359 0.13782
vn -0.96252 -0.23359 0.13782
vn -0.69521 -0.70663 0.13176
vn -0.63273 0.76513 0.11929
vn -0.64526 0.75784 0.09659
vn -0.50367 -0.86386 0.00807
vn -0.50367 -0.86386 0.00807
vn -0.50367 -0.86386 0.00807
vn 0.30602 -0.73623 -0.60359
vn 0.0934 -0.72203 -0.68552
vn -0.16868 -0.86846 0.46618
vn 0.40762 -0.90065 0.15057
vn 0.57716 -0.35154 0.73709
vn -0.65687 0.6308 -0.41305
vn -0.93468 -0.05612 0.35102
vn -0.92786 -0.05472 0.3689
vn -0.95193 -0.09204 0.29215
vn -0.95118 -0.08578 0.29649
vn -0.73794 0.45112 -0.50193
vn -0.70887 0.66029 -0.24805
vn -0.9008 0.30676 0.30735
vn -0.10444 -0.33663 0.93583
vn -0.01353 -0.44685 0.89451
vn -0 -0 -1
vn -0 -0 -1
vn -0.8961 -0.0443 -0.44164
vn 0.60192 0.58659 -0.54185
vn -0.77727 -0.45366 0.43594
vn -0.95034 -0.09195 0.29733
vn -0.30375 -0.95067 -0.06294
vn -0.30193 -0.95308 -0.02187
vn -0.30665 -0.95168 -0.01635
vn -0.30496 -0.95223 -0.01589
vn -0.29187 -0.95591 -0.03253
vn -0.30152 -0.9533 -0.01754
vn -0.30497 -0.95228 -0.01217
vn -0.30665 -0.95166 -0.01751
vn -0.30143 -0.953 -0.0305
vn 0.58582 -0.62923 -0.51077
vn 0.7436 -0.30417 -0.59543
vn 0.97597 -0.11329 -0.18614
vn -0.96062 0.27587 -0.03316
vn -0.91188 0.02712 -0.40956
vn -0.29099 -0.76337 -0.5767
vn -0.29477 -0.76056 -0.57849
vn -0.38382 -0.75013 0.53851
vn -0.51577 -0.72521 0.45612
vn -0.39199 -0.747 0.53697
vn -0.3865 -0.74809 0.53942
vn -0.2849 -0.80243 0.52434
vn -0.56076 -0.80513 0.19317
vn -0.55021 -0.80837 0.20932
vn -0.43937 -0.86408 0.24558
vn -0.55738 -0.80398 0.20723
vn -0.55737 -0.80264 0.21239
vn -0.55564 -0.80314 0.21501
vn -0.95823 -0.09643 0.26924
vn -0.80608 -0.56735 0.16835
vn -0.80608 -0.56735 0.16835
vn -0.91749 -0.06299 -0.39275
vn -0.42464 -0.38322 0.82025
vn -0.4239 -0.38451 0.82003
vn -0.42662 -0.3838 0.81896
vn -0.42391 -0.38338 0.82056
vn -0.62163 -0.54175 -0.56576
vn -0.57174 -0.66041 -0.4868
vn -0.90862 -0.40421 -0.10497
vn -0.99396 -0.10774 0.02097
vn -0.11144 -0.05403 0.9923
vn -0.29547 -0.13754 0.9454
vn 0.95517 -0.24428 0.16727
vn 0.94025 -0.27882 0.1954
vn -0.75803 -0.31883 -0.56897
vn -0.74084 -0.31993 -0.5906
vn -0.00952 -0.71788 0.6961
vn 0 -0.72036 0.6936
vn -0.00972 -0.91681 0.39921
vn 0 0.96837 0.24951
vn -0.63661 -0.57878 -0.50964
vn -0.13226 -0.66692 -0.7333
vn 0.39621 -0.82871 0.3953
vn -0.50365 -0.86368 -0.01972
vn -0.01893 -0.98362 -0.17923
vn -0.17981 -0.28556 0.94134
vn -0.57354 -0.6857 0.44818
vn -0.6191 -0.63629 0.46027
vn -0.51264 0.85184 -0.10753
vn -0.73809 0.31018 0.59918
vn -0.73484 0.32041 0.59778
vn -0.23649 0.69836 0.67555
vn 0 0 -1
vn 0 -0 -1
vn 0 -0 -1
vn 0.79088 0.59243 -0.15341
vn 0.80128 0.29378 0.5212
vn 0.88503 -0.06886 0.46042
vn 0.88228 -0.07441 0.46481
vn -0.78394 -0.33804 0.52074
vn -0.77696 -0.57472 0.25696
vn -0.97258 -0.03817 0.2294
vn -0.97373 -0.04169 0.22386
vn -0.04589 0.96325 -0.26467
vn -0.0357 0.96633 -0.25482
vn -0.30127 -0.95063 -0.07444
vn 0.94945 -0.30792 -0.06114
vn -0.72193 -0.69189 0.01052
vn 0.70619 -0.7071 0.03607
vn 0.0489 -0.78751 0.61436
vn 0.91171 0.1553 -0.38036
vn 0.91166 0.15541 -0.38044
vn 0.14588 -0.92455 -0.35202
vn 0.15814 -0.92823 -0.33671
vn 0.655 -0.19429 0.73022
vn 0.655 -0.19429 0.73022
vn 0.48961 0.86724 0.09042
vn -0.02075 0.99514 0.09631
vn 0.68774 0.53148 -0.49451
vn 0.73986 0.66999 -0.06099
vn 0.71631 0.67342 0.1828
vn 0.27549 0.91267 0.3019
vn 0.27238 0.91303 0.30362
vn -0.07748 -0.8779 0.47253
vn 0.88587 0.06176 -0.4598
vn 0.88869 0.05683 -0.45497
vn 0.69246 -0.47673 0.5415
vn 0.61105 -0.44964 0.65149
vn 0.85804 0.42163 -0.29325
vn 0.86467 0.40919 -0.29139
vn -0.02813 0.78506 -0.61878
vn 0.11802 0.7677 -0.62985
vn 0.85867 0.50433 -0.09135
vn 0.97331 0.115 0.19863
vn 0.12953 0.9817 -0.13959
vn 0.13015 0.98161 -0.13968
vn 0.88849 0.06374 -0.45446
vn 0.88564 0.0695 -0.45915
vn 0.25529 0.92195 0.29127
vn 0.1713 0.97913 -0.10936
vn 0.17139 0.97912 -0.10931
vn 0.32593 0.75758 0.56554
vn 0.31991 0.76169 0.56346
vn 0.46586 -0.21035 0.85949
vn 0.46697 -0.21117 0.85869
vn 0.31397 -0.92935 0.19422
vn 0.7301 -0.67294 -0.11877
vn 0.26223 -0.96399 0.04426
vn 0.24993 -0.9666 0.05673
vn 0.17188 -0.75492 -0.6329
vn 0.23848 -0.64947 -0.72202
vn 0.23983 -0.64955 -0.7215
vn 0.8337 0.49107 0.25259
vn 0.83115 0.49082 0.26131
vn 0.72681 -0.65401 0.20981
vn 0.7251 -0.65185 0.22209
vn 0.77845 0.16166 0.60654
vn 0.39824 -0.76613 0.50444
vn 0.33015 -0.64272 0.69131
vn -0.13588 -0.59054 0.79549
vn 0.77508 -0.61345 -0.1514
vn 0.27642 -0.90924 -0.31125
vn 0.26959 -0.90941 -0.31668
vn 0.74265 -0.212 -0.63524
vn 0.7556 -0.25612 -0.60288
vn 0.8178 0.17091 -0.54954
vn 0.90742 -0.16316 -0.38725
vn 0.58065 -0.64131 -0.50157
vn 0.56128 -0.67441 -0.47971
vn 0.11241 0.88126 -0.45908
vn 0.42204 0.83939 -0.34251
vn 0.96252 -0.23359 0.13782
vn 0.96252 -0.23359 0.13782
vn 0.69521 -0.70663 0.13176
vn 0.64526 0.75784 0.09659
vn 0.63273 0.76513 0.11929
vn 0.50367 -0.86386 0.00807
vn 0.50367 -0.86386 0.00807
vn 0.50367 -0.86386 0.00807
vn -0.0934 -0.72203 -0.68552
vn -0.30602 -0.73623 -0.60359
vn 0.16868 -0.86846 0.46618
vn -0.57716 -0.35154 0.73709
vn -0.40762 -0.90065 0.15057
vn 0.65687 0.6308 -0.41305
vn 0.92786 -0.05472 0.3689
vn 0.93468 -0.05612 0.35102
vn 0.95118 -0.08578 0.29649
vn 0.95193 -0.09204 0.29215
vn 0.70887 0.66029 -0.24805
vn 0.73794 0.45112 -0.50193
vn 0.9008 0.30676 0.30735
vn 0.01353 -0.44685 0.89451
vn 0.10444 -0.33663 0.93583
vn 0 -0 -1
vn 0 -0 -1
vn 0.8961 -0.0443 -0.44164
vn -0.60192 0.58659 -0.54185
vn 0.77727 -0.45366 0.43594
vn 0.95034 -0.09195 0.29733
vn 0.30375 -0.95067 -0.06294
vn 0.30665 -0.95168 -0.01635
vn 0.30193 -0.95308 -0.02187
vn 0.29187 -0.95591 -0.03253
vn 0.30496 -0.95223 -0.01589
vn 0.30497 -0.95228 -0.01217
vn 0.30152 -0.9533 -0.01754
vn 0.30143 -0.953 -0.0305
vn 0.30665 -0.95166 -0.01751
vn -0.58582 -0.62923 -0.51077
vn -0.97597 -0.11329 -0.18614
vn -0.7436 -0.30417 -0.59543
vn 0.91188 0.02712 -0.40956
vn 0.96062 0.27587 -0.03316
vn 0.29477 -0.76056 -0.57849
vn 0.29099 -0.76337 -0.5767
vn 0.51577 -0.72521 0.45612
vn 0.38382 -0.75013 0.53851
vn 0.3865 -0.74809 0.53942
vn 0.39199 -0.747 0.53697
vn 0.2849 -0.80243 0.52434
vn 0.55021 -0.80837 0.20932
vn 0.56076 -0.80513 0.19317
vn 0.55738 -0.80398 0.20723
vn 0.43937 -0.86408 0.24558
vn 0.55564 -0.80314 0.21501
vn 0.55737 -0.80264 0.21239
vn 0.95823 -0.09643 0.26924
vn 0.80608 -0.56735 0.16835
vn 0.80608 -0.56735 0.16835
vn 0.91749 -0.06299 -0.39275
vn 0.4239 -0.38451 0.82003
vn 0.42464 -0.38322 0.82025
vn 0.42391 -0.38338 0.82056
vn 0.42662 -0.3838 0.81896
vn 0.57174 -0.66041 -0.4868
vn 0.62163 -0.54175 -0.56576
vn 0.99396 -0.10774 0.02097
vn 0.90862 -0.40421 -0.10497
vn 0.29547 -0.13754 0.9454
vn 0.11144 -0.05403 0.9923
vn -0.94025 -0.27882 0.1954
vn -0.95517 -0.24428 0.16727
vn 0.74084 -0.31993 -0.5906
vn 0.75803 -0.31883 -0.56897
vn 0 -0.72036 0.6936
vn 0.00952 -0.71788 0.6961
vn 0.00972 -0.91681 0.39921
vn 0.63661 -0.57878 -0.50964
vn 0.13226 -0.66692 -0.7333
vn -0.39621 -0.82871 0.3953
vn 0.01893 -0.98362 -0.17923
vn 0.50365 -0.86368 -0.01972
vn 0.17981 -0.28556 0.94134
vn 0.6191 -0.63629 0.46027
vn 0.57354 -0.6857 0.44818
vn 0.51264 0.85184 -0.10753
vn 0.73809 0.31018 0.59918
vn 0.73484 0.32041 0.59778
vn 0.23649 0.69836 0.67555
f 1//1 2//1 3//1
f 3//2 4//2 1//2
f 4//3 3//3 5//3
f 5//3 3//3 6//3
f 6//3 3//3 7//3
f 7//3 8//3 6//3
f 9//4 3//4 2//4
f 3//3 10//3 7//3
f 3//3 9//3 10//3
f 2//5 11//5 12//5
f 12//6 9//6 2//6
f 1//7 13//7 11//7
f 11//8 2//8 1//8
f 7//9 14//9 15//9
f 15//10 8//10 7//10
f 10//11 16//11 14//11
f 14//12 7//12 10//12
f 9//13 12//13 16//13
f 16//14 10//14 9//14
f 4//15 13//15 1//15
f 5//16 13//16 4//16
f 6//17 15//17 5//17
f 8//18 15//18 6//18
f 5//19 15//19 13//19
f 11//20 17//20 18//20
f 18//21 12//21 11//21
f 11//22 14//22 19//22
f 19//23 17//23 11//23
f 17//24 20//24 21//24
f 21//25 18//25 17//25
f 18//26 21//26 22//26
f 18//27 22//27 16//27
f 16//28 12//28 18//28
f 21//29 23//29 24//29
f 24//30 22//30 21//30
f 23//31 25//31 26//31
f 26//32 24//32 23//32
f 19//33 20//33 17//33
f 27//34 28//34 29//34
f 29//35 30//35 27//35
f 28//3 31//3 32//3
f 32//3 29//3 28//3
f 33//36 34//36 35//36
f 35//37 27//37 33//37
f 35//38 36//38 28//38
f 28//39 27//39 35//39
f 36//40 37//40 31//40
f 31//41 28//41 36//41
f 35//42 38//42 39//42
f 39//43 36//43 35//43
f 39//44 40//44 37//44
f 37//45 36//45 39//45
f 30//46 29//46 41//46
f 41//47 22//47 30//47
f 23//48 42//48 25//48
f 42//49 43//49 44//49
f 44//50 25//50 42//50
f 43//51 45//51 46//51
f 46//52 44//52 43//52
f 45//53 47//53 48//53
f 48//54 46//54 45//54
f 49//55 50//55 51//55
f 51//56 52//56 49//56
f 53//57 54//57 55//57
f 55//58 56//58 53//58
f 54//59 57//59 55//59
f 57//60 54//60 58//60
f 58//61 59//61 57//61
f 29//3 32//3 60//3
f 60//3 41//3 29//3
f 23//62 61//62 62//62
f 62//63 42//63 23//63
f 61//64 63//64 64//64
f 64//65 62//65 61//65
f 62//66 65//66 66//66
f 66//67 42//67 62//67
f 64//68 67//68 65//68
f 65//69 62//69 64//69
f 19//70 68//70 20//70
f 19//71 69//71 70//71
f 70//72 68//72 19//72
f 61//73 71//73 68//73
f 68//74 63//74 61//74
f 38//75 72//75 73//75
f 73//76 39//76 38//76
f 74//77 75//77 72//77
f 72//78 38//78 74//78
f 39//79 73//79 76//79
f 76//80 40//80 39//80
f 72//81 77//81 78//81
f 78//82 73//82 72//82
f 75//83 77//83 72//83
f 78//84 79//84 76//84
f 76//85 73//85 78//85
f 80//86 81//86 82//86
f 63//87 80//87 82//87
f 63//88 82//88 64//88
f 83//89 84//89 81//89
f 81//90 80//90 83//90
f 82//91 85//91 64//91
f 82//92 81//92 84//92
f 84//93 86//93 82//93
f 23//94 71//94 61//94
f 21//95 20//95 71//95
f 71//96 23//96 21//96
f 47//97 45//97 87//97
f 87//98 88//98 47//98
f 42//99 66//99 87//99
f 87//100 43//100 42//100
f 43//101 87//101 45//101
f 14//102 11//102 13//102
f 13//103 15//103 14//103
f 60//104 89//104 90//104
f 90//105 41//105 60//105
f 41//106 91//106 22//106
f 22//107 91//107 16//107
f 20//108 68//108 71//108
f 78//109 77//109 79//109
f 68//110 70//110 92//110
f 92//111 70//111 93//111
f 93//112 83//112 92//112
f 86//113 94//113 95//113
f 95//114 85//114 86//114
f 84//115 96//115 94//115
f 94//116 86//116 84//116
f 83//117 93//117 96//117
f 96//118 84//118 83//118
f 85//119 82//119 86//119
f 16//120 91//120 19//120
f 19//121 14//121 16//121
f 41//122 90//122 19//122
f 19//123 91//123 41//123
f 19//124 90//124 89//124
f 89//125 69//125 19//125
f 67//126 58//126 66//126
f 66//127 65//127 67//127
f 85//128 59//128 58//128
f 58//129 67//129 85//129
f 95//130 59//130 85//130
f 47//131 97//131 98//131
f 98//132 48//132 47//132
f 99//133 97//133 47//133
f 47//134 88//134 99//134
f 98//135 100//135 101//135
f 101//136 48//136 98//136
f 88//137 87//137 102//137
f 53//138 88//138 102//138
f 102//139 54//139 53//139
f 66//140 102//140 87//140
f 101//141 100//141 53//141
f 53//142 56//142 101//142
f 99//143 88//143 53//143
f 53//144 100//144 99//144
f 97//145 51//145 50//145
f 50//146 98//146 97//146
f 98//147 50//147 49//147
f 49//148 100//148 98//148
f 100//149 49//149 52//149
f 52//150 99//150 100//150
f 99//151 52//151 51//151
f 51//152 97//152 99//152
f 66//153 58//153 54//153
f 54//154 102//154 66//154
f 77//155 103//155 104//155
f 104//156 79//156 77//156
f 77//157 75//157 103//157
f 79//158 104//158 76//158
f 68//159 105//159 63//159
f 68//160 92//160 105//160
f 92//161 83//161 80//161
f 80//162 63//162 105//162
f 105//163 92//163 80//163
f 67//164 64//164 85//164
f 74//165 38//165 35//165
f 35//166 34//166 74//166
f 26//167 22//167 24//167
f 30//168 26//168 27//168
f 22//169 26//169 30//169
f 27//170 26//170 33//170
f 106//171 107//171 108//171
f 108//172 109//172 106//172
f 107//3 110//3 108//3
f 110//3 111//3 108//3
f 111//3 112//3 113//3
f 113//3 108//3 111//3
f 114//173 109//173 108//173
f 108//3 113//3 115//3
f 108//3 115//3 114//3
f 109//174 114//174 116//174
f 116//175 117//175 109//175
f 106//176 109//176 117//176
f 117//177 118//177 106//177
f 113//178 112//178 119//178
f 119//179 120//179 113//179
f 115//180 113//180 120//180
f 120//181 121//181 115//181
f 114//182 115//182 121//182
f 121//183 116//183 114//183
f 107//184 106//184 118//184
f 110//185 107//185 118//185
f 111//186 110//186 119//186
f 112//187 111//187 119//187
f 110//188 118//188 119//188
f 117//189 116//189 122//189
f 122//190 123//190 117//190
f 117//191 123//191 124//191
f 124//192 120//192 117//192
f 123//193 122//193 125//193
f 125//194 126//194 123//194
f 122//195 127//195 125//195
f 122//196 116//196 121//196
f 121//197 127//197 122//197
f 125//198 127//198 128//198
f 128//199 129//199 125//199
f 129//200 128//200 26//200
f 26//201 25//201 129//201
f 124//202 123//202 126//202
f 130//203 131//203 132//203
f 132//204 133//204 130//204
f 133//3 132//3 32//3
f 32//3 31//3 133//3
f 33//205 130//205 134//205
f 134//206 34//206 33//206
f 134//207 130//207 133//207
f 133//208 135//208 134//208
f 135//209 133//209 31//209
f 31//210 37//210 135//210
f 134//211 135//211 136//211
f 136//212 137//212 134//212
f 136//213 135//213 37//213
f 37//214 40//214 136//214
f 131//215 127//215 138//215
f 138//216 132//216 131//216
f 129//217 25//217 139//217
f 139//218 25//218 44//218
f 44//219 140//219 139//219
f 140//220 44//220 46//220
f 46//221 141//221 140//221
f 141//222 46//222 48//222
f 48//223 142//223 141//223
f 143//224 144//224 145//224
f 145//225 146//225 143//225
f 147//226 56//226 55//226
f 55//227 148//227 147//227
f 148//228 55//228 57//228
f 57//229 59//229 149//229
f 149//230 148//230 57//230
f 132//3 138//3 60//3
f 60//3 32//3 132//3
f 129//231 139//231 150//231
f 150//232 151//232 129//232
f 151//233 150//233 152//233
f 152//234 153//234 151//234
f 150//235 139//235 154//235
f 154//236 155//236 150//236
f 152//237 150//237 155//237
f 155//238 156//238 152//238
f 124//239 126//239 157//239
f 124//240 157//240 70//240
f 70//241 69//241 124//241
f 151//242 153//242 157//242
f 157//243 158//243 151//243
f 137//244 136//244 159//244
f 159//245 160//245 137//245
f 74//246 137//246 160//246
f 160//247 75//247 74//247
f 136//248 40//248 76//248
f 76//249 159//249 136//249
f 160//250 159//250 161//250
f 161//251 162//251 160//251
f 75//252 160//252 162//252
f 161//253 159//253 76//253
f 76//254 163//254 161//254
f 153//255 152//255 164//255
f 164//256 165//256 166//256
f 153//257 164//257 166//257
f 167//258 166//258 165//258
f 165//259 168//259 167//259
f 164//260 152//260 169//260
f 164//261 170//261 168//261
f 168//262 165//262 164//262
f 129//263 151//263 158//263
f 125//264 129//264 158//264
f 158//265 126//265 125//265
f 142//266 171//266 172//266
f 172//267 141//267 142//267
f 139//268 140//268 172//268
f 172//269 154//269 139//269
f 140//270 141//270 172//270
f 120//271 119//271 118//271
f 118//272 117//272 120//272
f 60//273 138//273 173//273
f 173//274 89//274 60//274
f 138//275 127//275 174//275
f 127//276 121//276 174//276
f 126//277 158//277 157//277
f 161//278 163//278 162//278
f 157//279 175//279 70//279
f 175//280 167//280 93//280
f 93//281 70//281 175//281
f 170//282 169//282 95//282
f 95//283 94//283 170//283
f 168//284 170//284 94//284
f 94//285 96//285 168//285
f 167//286 168//286 96//286
f 96//287 93//287 167//287
f 169//288 170//288 164//288
f 121//289 120//289 124//289
f 124//290 174//290 121//290
f 138//291 174//291 124//291
f 124//292 173//292 138//292
f 124//293 69//293 89//293
f 89//294 173//294 124//294
f 156//295 155//295 154//295
f 154//296 149//296 156//296
f 169//297 156//297 149//297
f 149//298 59//298 169//298
f 95//299 169//299 59//299
f 142//300 48//300 176//300
f 176//301 177//301 142//301
f 178//302 171//302 142//302
f 142//303 177//303 178//303
f 176//304 48//304 101//304
f 101//305 179//305 176//305
f 171//306 180//306 172//306
f 147//307 148//307 180//307
f 180//308 171//308 147//308
f 154//309 172//309 180//309
f 101//310 56//310 147//310
f 147//311 179//311 101//311
f 178//312 179//312 147//312
f 147//313 171//313 178//313
f 177//314 176//314 146//314
f 146//315 145//315 177//315
f 176//316 179//316 143//316
f 143//317 146//317 176//317
f 179//318 178//318 144//318
f 144//319 143//319 179//319
f 178//320 177//320 145//320
f 145//321 144//321 178//321
f 154//322 180//322 148//322
f 148//323 149//323 154//323
f 162//324 163//324 104//324
f 104//325 103//325 162//325
f 162//326 103//326 75//326
f 163//158 76//158 104//158
f 157//327 153//327 181//327
f 157//328 181//328 175//328
f 175//329 166//329 167//329
f 166//330 175//330 181//330
f 181//331 153//331 166//331
f 156//332 169//332 152//332
f 74//333 34//333 134//333
f 134//334 137//334 74//334
f 26//335 128//335 127//335
f 131//336 130//336 26//336
f 127//337 131//337 26//337
f 130//338 33//338 26//338
# Vertices: 181, normals: 338, texture coordinates: 0, faces: 358

