# OBJ generated by ONSHAPE BY PTC INC, 1.206 Units = meters
mtllib Part Studio 1 - table.mtl
g table
v -4.445 -0.667004 -1.27 
v -4.445 -0.667004 1.27 
v 0.889 -0.667004 1.27 
v 0.889 -0.667004 -1.27 
v 0.889 -2.953 1.27 
v 0.635 -0.921004 1.27 
v -4.191 -0.921004 1.27 
v -4.445 -2.953 1.27 
v -4.191 -2.953 1.27 
v 0.635 -2.953 1.27 
v -4.191 -2.953 1.016 
v -4.191 -0.921004 1.016 
v -4.445 -2.953 1.016 
v -4.445 -0.921004 1.016 
v 0.635 -0.921004 1.016 
v 0.635 -2.953 1.016 
v 0.889 -0.921004 1.016 
v 0.889 -2.953 1.016 
v 0.889 -2.953 -1.27 
v 0.889 -0.921004 -1.016 
v 0.889 -2.953 -1.016 
v 0.635 -0.921004 -1.016 
v 0.635 -2.953 -1.016 
v 0.635 -0.921004 -1.27 
v 0.635 -2.953 -1.27 
v -4.445 -0.921004 -1.016 
v -4.191 -0.921004 -1.016 
v -4.191 -0.921004 -1.27 
v -4.445 -2.953 -1.27 
v -4.191 -2.953 -1.27 
v -4.445 -2.953 -1.016 
v -4.191 -2.953 -1.016 
vn 0 1 0 
vn -8.32563e-17 0 1 
vn 1 0 0 
vn 0 0 -1 
vn 0 -1 0 
vn -1 0 -4.37096e-16 
vn 0 0 -1 
vn 0 -1 0 
vn 1 0 3.05967e-16 
vn 0 0 1 
vn -1 0 0 
vn 0 -1 0 
vn 8.32563e-17 0 -1 
vn -1 0 -3.49677e-16 
vn 1 0 0 
vn 0 0 1 
vn 0 -1 0 
usemtl 0.537255_0.317647_0.160784_0.000000_0.000000
o mesh0
f 1//1 2//1 3//1 
f 3//1 4//1 1//1 
o mesh1
f 5//2 3//2 6//2 
f 3//2 2//2 7//2 
f 7//2 6//2 3//2 
f 8//2 9//2 7//2 
f 7//2 2//2 8//2 
f 6//2 10//2 5//2 
o mesh2
f 11//3 12//3 7//3 
f 7//3 9//3 11//3 
o mesh3
f 13//4 14//4 12//4 
f 12//4 11//4 13//4 
o mesh4
f 9//5 8//5 13//5 
f 13//5 11//5 9//5 
o mesh5
f 10//6 6//6 15//6 
f 15//6 16//6 10//6 
o mesh6
f 16//7 15//7 17//7 
f 17//7 18//7 16//7 
o mesh7
f 18//8 5//8 10//8 
f 10//8 16//8 18//8 
o mesh8
f 19//9 4//9 20//9 
f 4//9 3//9 17//9 
f 17//9 20//9 4//9 
f 5//9 18//9 17//9 
f 17//9 3//9 5//9 
f 20//9 21//9 19//9 
o mesh9
f 21//10 20//10 22//10 
f 22//10 23//10 21//10 
o mesh10
f 23//11 22//11 24//11 
f 24//11 25//11 23//11 
o mesh11
f 25//12 19//12 21//12 
f 21//12 23//12 25//12 
o mesh12
f 26//12 27//12 12//12 
f 27//12 15//12 12//12 
f 12//12 14//12 26//12 
f 7//12 12//12 15//12 
f 17//12 15//12 22//12 
f 28//12 24//12 22//12 
f 15//12 6//12 7//12 
f 22//12 15//12 28//12 
f 22//12 20//12 17//12 
f 27//12 28//12 15//12 
o mesh13
f 29//13 1//13 28//13 
f 4//13 24//13 28//13 
f 28//13 1//13 4//13 
f 19//13 25//13 24//13 
f 24//13 4//13 19//13 
f 28//13 30//13 29//13 
o mesh14
f 8//14 2//14 14//14 
f 2//14 1//14 26//14 
f 26//14 14//14 2//14 
f 29//14 31//14 26//14 
f 26//14 1//14 29//14 
f 14//14 13//14 8//14 
o mesh15
f 30//15 28//15 27//15 
f 27//15 32//15 30//15 
o mesh16
f 32//16 27//16 26//16 
f 26//16 31//16 32//16 
o mesh17
f 31//17 29//17 30//17 
f 30//17 32//17 31//17 
